<?xml version="1.0" encoding="UTF-8" standalone="no"?>
<svg
   width="37.253593"
   height="39.426262"
   viewBox="0 0 37.253594 39.426262"
   fill="none"
   version="1.1"
   id="svg143"
   sodipodi:docname="Union.svg"
   inkscape:export-filename="owl-b.svg"
   inkscape:export-xdpi="96"
   inkscape:export-ydpi="96"
   xmlns:inkscape="http://www.inkscape.org/namespaces/inkscape"
   xmlns:sodipodi="http://sodipodi.sourceforge.net/DTD/sodipodi-0.dtd"
   xmlns="http://www.w3.org/2000/svg"
   xmlns:svg="http://www.w3.org/2000/svg">
  <sodipodi:namedview
     id="namedview145"
     pagecolor="#ffffff"
     bordercolor="#000000"
     borderopacity="0.25"
     inkscape:showpageshadow="2"
     inkscape:pageopacity="0.0"
     inkscape:pagecheckerboard="0"
     inkscape:deskcolor="#d1d1d1"
     showgrid="false"
     showguides="true">
    <sodipodi:guide
       position="23.113375,30.121675"
       orientation="0,-1"
       id="guide1460"
       inkscape:locked="false" />
    <sodipodi:guide
       position="-8.8925915,-5.2678282"
       orientation="1,0"
       id="guide1462"
       inkscape:locked="false" />
    <sodipodi:guide
       position="-10.892591,29.150933"
       orientation="1,0"
       id="guide1464"
       inkscape:locked="false" />
  </sodipodi:namedview>
  <path
     id="rect2284"
     style="fill:#ffffff;stroke-width:0.377953"
     d="M 5.5662652e-4,0 H 37.253595 L 7.1240566,37.91674 c 0,0 -2.3689621,2.234988 -4.7955199,1.13632 C -0.09802112,37.954392 5.5662652e-4,35.41874 5.5662652e-4,35.41874 Z"
     sodipodi:nodetypes="ccczcc" />
  <path
     d="M 1.0005566,35.41874 H 5.5662652e-4 v 0 z m 5.3426,1.874 0.7809,0.624 v 0 z m -4.3426,-1.874 V 2 H 5.5662652e-4 v 33.41874 z m 3.5617,1.249 c -1.181,1.476 -3.5617,0.641 -3.5617,-1.249 H 5.5662652e-4 c 0,3.781 4.76139997348,5.451 7.12349997348,2.498 z m 0,0 1.5618,1.249 28.5165524,-35.94598 -2.48941,0.0292 c 0,0 -21.247907,26.74139 -27.5889424,34.66774 z"
     fill="url(#paint0_linear_1660_57257)"
     id="path134"
     sodipodi:nodetypes="cccccccccccccccccccccccc"
     style="fill:url(#paint0_linear_1660_57257)" />
  <defs
     id="defs141">
    <linearGradient
       id="paint0_linear_1660_57257"
       x1="1"
       y1="103.727"
       x2="437"
       y2="103.727"
       gradientUnits="userSpaceOnUse"
       gradientTransform="translate(-60.999443,-168.02926)">
      <stop
         stop-color="#F7941D"
         id="stop136" />
      <stop
         offset="1"
         stop-color="#27AAE1"
         id="stop138" />
    </linearGradient>
  </defs>
</svg>
